<svg version="1.1" id="Слой_1" xmlns="http://www.w3.org/2000/svg" xmlns:xlink="http://www.w3.org/1999/xlink" x="0px" y="0px"
	 viewBox="0 0 561.7 85" style="enable-background:new 0 0 561.7 85;" xml:space="preserve">
<style type="text/css">
	.st0{fill:#69ACDF;}
	.st1{fill:#A1C854;}
	.st2{fill:#599F46;}
	.st3{fill:#75B94E;}
	.st4{fill:#F08046;}
	.st5{fill:#333333;}
</style>
<path class="st0" d="M90.2,36.1C90.2,16.2,74,0,54.1,0c-3.1,0-6.1,0.4-9,1.1c5.5,1.4,10.5,4.1,14.7,7.7c1.8,0.9,3.5,1.9,5.1,3.1
	C76.3,18,84,30,84,43.8c0,6.7-1.9,13-5.1,18.4C85.9,55.7,90.2,46.4,90.2,36.1z"/>
<path class="st1" d="M11.4,25.3C15.7,16.5,23.5,9.7,33,6.8c3.6-2.6,7.6-4.5,12-5.6c-2.9-0.7-5.9-1.1-9-1.1C16.2,0,0,16.2,0,36.1
	c0,4.7,0.9,9.3,2.6,13.4V49C2.6,39.9,5.9,31.6,11.4,25.3z"/>
<path class="st2" d="M43.8,5.2c5.7,0,11.1,1.3,15.9,3.7C55.5,5.3,50.6,2.6,45,1.2c-4.4,1.1-8.4,3.1-12,5.6
	C36.5,5.7,40.1,5.2,43.8,5.2z"/>
<path class="st3" d="M26.8,73.1c-2.4-1.3-4.7-2.8-6.7-4.6c-7.9-4-14.2-10.7-17.5-19C2.9,69.2,18.9,85,38.7,85
	c8.3,0,15.9-2.8,21.9-7.4c-3.9,1.5-8.2,2.3-12.7,2.3C40.1,79.9,32.8,77.4,26.8,73.1z"/>
<path class="st2" d="M20.1,68.4C12.5,61.8,7.7,52.1,7.7,41.2c0-5.7,1.3-11.1,3.7-15.9C5.9,31.6,2.6,39.9,2.6,49v0.5
	C5.9,57.8,12.2,64.5,20.1,68.4z"/>
<path class="st4" d="M64.9,12c9.1,6.6,15,17.2,15,29.3c0,9.1-3.3,17.3-8.9,23.7c-1.8,2.1-3.9,4-6.2,5.6c-5.9,4.3-13.2,6.8-21,6.8
	c-6.1,0-11.9-1.5-17-4.2C32.7,77.5,40,80,47.9,80c4.5,0,8.7-0.8,12.7-2.3c7.7-2.9,14.2-8.4,18.4-15.4c3.2-5.4,5.1-11.7,5.1-18.4
	C84,30,76.3,18,64.9,12z"/>
<path class="st5" d="M158.6,67.4c0.3,0.3,0.5,0.7,0.5,1.1c0,0.5-0.2,0.9-0.5,1.1c-0.3,0.3-0.7,0.4-1.1,0.4h-29.7
	c-0.4,0-0.8-0.2-1.1-0.5s-0.5-0.7-0.5-1.1v-52c0-0.4,0.2-0.8,0.5-1.1s0.7-0.5,1.1-0.5h29.7c0.4,0,0.8,0.2,1.1,0.5s0.5,0.7,0.5,1.1
	c0,0.5-0.2,0.9-0.5,1.1c-0.3,0.3-0.7,0.4-1.1,0.4h-28v22H154c0.4,0,0.8,0.2,1.1,0.5s0.5,0.7,0.5,1.1c0,0.5-0.2,0.9-0.5,1.1
	c-0.3,0.3-0.7,0.4-1.1,0.4h-24.4v23.7h28C158,66.9,158.3,67.1,158.6,67.4z M215.5,15.4c0.3,0.3,0.4,0.6,0.4,1c0,0.2-0.1,0.5-0.2,0.8
	l-21.6,51.9c-0.3,0.7-0.8,1-1.5,1c-0.3,0-0.6-0.1-0.9-0.3c-0.3-0.2-0.5-0.4-0.6-0.7l-21.4-51.7c-0.2-0.3-0.2-0.6-0.2-0.9
	c0-0.4,0.1-0.8,0.4-1.1c0.3-0.3,0.6-0.4,1.1-0.4c0.8,0,1.4,0.4,1.7,1.3l20,48.1L212.9,16c0.4-0.7,0.9-1,1.5-1
	C214.9,15,215.3,15.1,215.5,15.4z M271.8,57.2c-2.2,4.3-5.3,7.7-9.3,10c-4,2.4-8.5,3.6-13.6,3.6s-9.6-1.2-13.6-3.6s-7.1-5.7-9.3-10
	s-3.3-9.2-3.3-14.7s1.1-10.4,3.3-14.7s5.3-7.6,9.3-10s8.5-3.6,13.6-3.6s9.6,1.2,13.6,3.6s7.1,5.7,9.3,10c2.2,4.3,3.3,9.2,3.3,14.7
	S274,52.9,271.8,57.2z M268.9,29.4c-1.9-3.8-4.7-6.8-8.1-8.9c-3.5-2.1-7.5-3.1-11.9-3.1c-4.5,0-8.4,1.1-11.9,3.1
	c-3.5,2.1-6.2,5.1-8.1,8.9c-1.9,3.8-2.9,8.2-2.9,13.1s1,9.3,2.9,13.2c1.9,3.8,4.7,6.8,8.1,8.9c3.5,2.1,7.5,3.1,11.9,3.1
	c4.5,0,8.4-1,11.9-3.1s6.2-5.1,8.1-8.9c1.9-3.8,2.9-8.2,2.9-13.2C271.8,37.6,270.9,33.2,268.9,29.4z M321.1,67.4
	c0.3,0.3,0.5,0.7,0.5,1.1c0,0.5-0.2,0.9-0.5,1.1c-0.3,0.3-0.7,0.4-1.1,0.4h-28.9c-0.5,0-0.9-0.2-1.1-0.5s-0.4-0.7-0.4-1.1v-52
	c0-0.4,0.2-0.8,0.5-1.1s0.7-0.5,1.2-0.5s0.9,0.2,1.2,0.5c0.3,0.3,0.5,0.7,0.5,1.1v50.4h27C320.4,66.9,320.8,67.1,321.1,67.4
	L321.1,67.4z M369.3,15.4c0.3,0.3,0.4,0.7,0.4,1.1v34c0,3.7-0.9,7.1-2.8,10.2c-1.8,3.1-4.3,5.6-7.4,7.4c-3.1,1.8-6.5,2.8-10.1,2.8
	c-3.7,0-7.1-0.9-10.2-2.8c-3.1-1.8-5.6-4.3-7.4-7.4c-1.8-3.1-2.8-6.5-2.8-10.2v-34c0-0.5,0.2-0.9,0.5-1.1c0.3-0.3,0.7-0.4,1.2-0.4
	s0.9,0.2,1.2,0.5s0.5,0.7,0.5,1.1v34c0,3.1,0.8,6,2.3,8.6s3.6,4.7,6.2,6.3c2.6,1.5,5.4,2.3,8.5,2.3s5.9-0.8,8.5-2.3s4.7-3.6,6.2-6.3
	c1.5-2.6,2.3-5.5,2.3-8.6v-34c0-0.4,0.1-0.8,0.4-1.1s0.7-0.5,1.1-0.5C368.6,15,369,15.1,369.3,15.4L369.3,15.4z M422.9,15.4
	c0.3,0.3,0.5,0.6,0.5,1.1s-0.1,0.8-0.4,1.1c-0.3,0.3-0.7,0.4-1.1,0.4h-17.6v50.6c0,0.4-0.2,0.8-0.5,1.1c-0.3,0.3-0.7,0.5-1.1,0.5
	c-0.5,0-0.9-0.2-1.1-0.5c-0.3-0.3-0.4-0.7-0.4-1.1V18h-17.6c-0.4,0-0.8-0.1-1.1-0.4c-0.3-0.3-0.5-0.6-0.5-1.1c0-0.4,0.2-0.8,0.5-1.1
	s0.7-0.4,1.1-0.4h38.3C422.2,15,422.6,15.1,422.9,15.4L422.9,15.4z M438.4,69.6c-0.3,0.3-0.7,0.5-1.1,0.5c-0.5,0-0.9-0.2-1.2-0.5
	s-0.4-0.7-0.4-1.2V16.6c0-0.5,0.2-0.9,0.5-1.2s0.7-0.5,1.2-0.5s0.9,0.2,1.2,0.5c0.3,0.3,0.5,0.7,0.5,1.2v51.8
	C438.9,68.9,438.7,69.3,438.4,69.6z M502.6,57.2c-2.2,4.3-5.3,7.7-9.3,10c-4,2.4-8.5,3.6-13.6,3.6s-9.6-1.2-13.6-3.6
	s-7.1-5.7-9.3-10c-2.2-4.3-3.3-9.2-3.3-14.7s1.1-10.4,3.3-14.7c2.2-4.3,5.3-7.6,9.3-10s8.5-3.6,13.6-3.6s9.6,1.2,13.6,3.6
	s7.1,5.7,9.3,10c2.2,4.3,3.3,9.2,3.3,14.7S504.8,52.9,502.6,57.2z M499.7,29.4c-1.9-3.8-4.7-6.8-8.1-8.9c-3.5-2.1-7.5-3.1-11.9-3.1
	s-8.4,1.1-11.9,3.1c-3.5,2.1-6.2,5.1-8.1,8.9s-2.9,8.2-2.9,13.1s1,9.3,2.9,13.2c1.9,3.8,4.7,6.8,8.1,8.9c3.5,2.1,7.5,3.1,11.9,3.1
	s8.4-1,11.9-3.1s6.2-5.1,8.1-8.9c1.9-3.8,2.9-8.2,2.9-13.2C502.6,37.6,501.6,33.2,499.7,29.4z M561.3,15.4c0.3,0.3,0.4,0.6,0.4,1.1
	v51.9c0,0.6-0.2,1-0.5,1.3s-0.7,0.4-1.2,0.4s-0.9-0.2-1.3-0.6L523.3,21v47.7c0,0.4-0.1,0.7-0.4,0.9c-0.3,0.3-0.6,0.4-1.1,0.4
	s-0.8-0.1-1.1-0.4s-0.4-0.6-0.4-0.9V16.5c0-0.5,0.1-0.9,0.4-1.2c0.3-0.3,0.6-0.4,1-0.4c0.5,0,0.9,0.2,1.2,0.6l35.7,48.7V16.5
	c0-0.4,0.1-0.8,0.4-1.1c0.3-0.3,0.6-0.4,1.1-0.4S561,15.1,561.3,15.4z"/>
</svg>
