<svg version="1.1" id="Слой_1" xmlns="http://www.w3.org/2000/svg" xmlns:xlink="http://www.w3.org/1999/xlink" x="0px" y="0px"
	 viewBox="0 0 300 300" style="enable-background:new 0 0 300 300;" xml:space="preserve">
<style type="text/css">
	.st0{fill:#6AACDF;}
	.st1{fill:#A0C856;}
	.st2{fill:#599F45;}
	.st3{fill:#76B94E;}
	.st4{fill:#F08046;}
</style>
<path class="st0" d="M290,130.3c0-61.8-50.3-112.1-112.1-112.1c-9.6,0-18.9,1.2-28,3.4c17.1,4.3,32.6,12.7,45.7,23.9
	c5.6,2.8,10.9,5.9,15.8,9.6c35.4,18.9,59.3,56.2,59.3,99.1c0,20.8-5.9,40.4-15.8,57.2C276.6,191.2,290,162.3,290,130.3z"/>
<path class="st1" d="M45.4,96.4C58.8,69.1,83,48,112.5,38.9c11.2-8.1,23.6-14,37.3-17.4c-9-2.2-18.3-3.4-28-3.4
	C60.3,17.8,10,68.1,10,130c0,14.6,2.8,28.9,8.1,41.6V170C18.1,141.8,28.3,116,45.4,96.4z"/>
<path class="st2" d="M146.2,34.1c17.7,0,34.5,3.9,49.4,11.4c-13-11.2-28.3-19.6-45.7-23.9c-13.7,3.4-26.1,9.3-37.3,17.3
	C123.5,35.5,134.7,34.1,146.2,34.1z"/>
<path class="st3" d="M93.3,244.9c-7.5-4-14.6-8.7-20.8-14.3c-24.5-12.4-44.1-33.2-54.4-59c0.9,61.2,50.6,110.3,112.1,110.3
	c25.8,0,49.4-8.7,68-23c-12.1,4.7-25.5,7.1-39.5,7.1C134.6,266,111.9,258.3,93.3,244.9z"/>
<path class="st2" d="M72.4,230.3c-23.6-20.5-38.5-50.6-38.5-84.5c0-17.7,4-34.5,11.5-49.4C28.3,116,18.1,141.8,18.1,170v1.6
	C28.3,197.4,47.9,218.2,72.4,230.3z"/>
<path class="st4" d="M211.6,55.1c28.3,20.5,46.6,53.4,46.6,91c0,28.3-10.3,53.7-27.6,73.6c-5.6,6.5-12.1,12.4-19.3,17.4
	c-18.3,13.4-41,21.1-65.2,21.1c-18.9,0-37-4.7-52.8-13c18.3,13.4,41,21.1,65.5,21.1c14,0,27-2.5,39.5-7.1
	c23.9-9,44.1-26.1,57.2-47.8c9.9-16.8,15.8-36.3,15.8-57.2C270.9,111,247,73.7,211.6,55.1z"/>
</svg>
