<svg version="1.0" xmlns="http://www.w3.org/2000/svg" xmlns:xlink="http://www.w3.org/1999/xlink" x="0px" y="0px"  width="51.7px" height="49.8px">
<path d="M25.1,0h8c0.5,0,0.9,0.2,1,0.6c0.2,0.4,0.1,0.7-0.3,1.1L10.6,24.9l23.2,23.2c0.4,0.4,0.5,0.8,0.3,1.2
	c-0.2,0.4-0.5,0.5-1,0.5h-8c-0.4,0-0.8-0.1-1.2-0.4L0.4,25.8C0.1,25.6,0,25.3,0,24.9s0.1-0.6,0.4-0.9L23.9,0.5
	C24.3,0.2,24.6,0,25.1,0L25.1,0 M42.6,0h8c0.5,0,0.9,0.2,1,0.6c0.2,0.4,0.1,0.7-0.3,1.1L28.1,24.9l23.2,23.2
	c0.4,0.4,0.5,0.8,0.3,1.2c-0.2,0.4-0.5,0.5-1,0.5h-8c-0.4,0-0.8-0.1-1.2-0.4L17.9,25.8c-0.2-0.3-0.4-0.6-0.4-0.9s0.1-0.6,0.4-0.9
	L41.5,0.5C41.8,0.2,42.2,0,42.6,0L42.6,0"/>
</svg>
