<svg version="1.0" xmlns="http://www.w3.org/2000/svg" xmlns:xlink="http://www.w3.org/1999/xlink" x="0px" y="0px" width="34px" height="50px"><path fill="black" d="M 1.21999931335449, 0 C 1.21999931335449, 0, 9.21999931335449, 0, 9.21999931335449, 0 C 9.63999938964844, 0, 10.0200004577637, 0.159999847412109, 10.3600006103516, 0.460000038146973 C 10.3600006103516, 0.460000038146973, 33.9200000762939, 23.9999980926514, 33.9200000762939, 23.9999980926514 C 34.1400012969971, 24.2600002288818, 34.2600002288818, 24.5599994659424, 34.2600002288818, 24.8999996185303 C 34.2600002288818, 25.2399997711182, 34.1400012969971, 25.5399990081787, 33.9200000762939, 25.8000011444092 C 33.9200000762939, 25.8000011444092, 10.3600006103516, 49.3599987030029, 10.3600006103516, 49.3599987030029 C 10.0200004577637, 49.6599979400635, 9.63999938964844, 49.8000011444092, 9.21999931335449, 49.8000011444092 C 9.21999931335449, 49.8000011444092, 1.21999931335449, 49.8000011444092, 1.21999931335449, 49.8000011444092 C 0.680000305175781, 49.8000011444092, 0.319999694824219, 49.6200008392334, 0.159999847412109, 49.2600002288818 C 0, 48.8799991607666, 0.119999885559082, 48.4999980926514, 0.520000457763672, 48.1000003814697 C 0.520000457763672, 48.1000003814697, 23.7199993133545, 24.8999996185303, 23.7199993133545, 24.8999996185303 C 23.7199993133545, 24.8999996185303, 0.520000457763672, 1.69999980926514, 0.520000457763672, 1.69999980926514 C 0.119999885559082, 1.29999923706055, 0, 0.920000076293945, 0.159999847412109, 0.559999465942383 C 0.319999694824219, 0.179999351501465, 0.680000305175781, 0, 1.21999931335449, 0 C 1.21999931335449, 0, 1.21999931335449, 0, 1.21999931335449, 0"/></svg>