<svg version="1.0" xmlns="http://www.w3.org/2000/svg" xmlns:xlink="http://www.w3.org/1999/xlink" x="0px" y="0px" width="34px" height="50px"><path fill="black" d="M 25.060001373291, 0 C 25.060001373291, 0, 33.060001373291, 0, 33.060001373291, 0 C 33.5800018310547, 0, 33.939998626709, 0.179999351501465, 34.0999984741211, 0.559999465942383 C 34.2599983215332, 0.920000076293945, 34.1599998474121, 1.29999923706055, 33.7599983215332, 1.69999980926514 C 33.7599983215332, 1.69999980926514, 10.5599994659424, 24.8999996185303, 10.5599994659424, 24.8999996185303 C 10.5599994659424, 24.8999996185303, 33.7599983215332, 48.1000003814697, 33.7599983215332, 48.1000003814697 C 34.1599998474121, 48.4999980926514, 34.2599983215332, 48.8799991607666, 34.0999984741211, 49.2600002288818 C 33.939998626709, 49.6200008392334, 33.5800018310547, 49.8000011444092, 33.060001373291, 49.8000011444092 C 33.060001373291, 49.8000011444092, 25.060001373291, 49.8000011444092, 25.060001373291, 49.8000011444092 C 24.6199989318848, 49.8000011444092, 24.2400016784668, 49.6599979400635, 23.9000015258789, 49.3599987030029 C 23.9000015258789, 49.3599987030029, 0.359999656677246, 25.8000011444092, 0.359999656677246, 25.8000011444092 C 0.119999885559082, 25.5399990081787, 0, 25.2399997711182, 0, 24.8999996185303 C 0, 24.5599994659424, 0.119999885559082, 24.2600002288818, 0.359999656677246, 23.9999980926514 C 0.359999656677246, 23.9999980926514, 23.9000015258789, 0.460000038146973, 23.9000015258789, 0.460000038146973 C 24.2400016784668, 0.159999847412109, 24.6199989318848, 0, 25.060001373291, 0 C 25.060001373291, 0, 25.060001373291, 0, 25.060001373291, 0"/></svg>